<svg data-logo="logo" xmlns="http://www.w3.org/2000/svg" viewBox="0 0 197 43">
    <g id="logogram" transform="translate(0, 1) rotate(0)">
        <path
            d="M65.2314 9.32458C62.3969 6.45393 59.0318 4.17673 55.3285 2.62316C51.625 1.06959 47.6558 0.269989 43.6472 0.269989C39.6386 0.269989 35.6694 1.06959 31.966 2.62316C28.2626 4.17673 24.8976 6.45393 22.0631 9.32458L43.6472 31.1841L65.2314 9.32458Z"
            fill="OKLCH(0.541 0.281 293.009)" />
        <path
            d="M43.6743 31.2155C46.5088 34.0862 49.8737 36.3632 53.5772 37.9168C57.2805 39.4704 61.2499 40.27 65.2584 40.27C69.2668 40.27 73.2366 39.4704 76.9399 37.9168C80.6431 36.3632 84.0085 34.0862 86.8428 31.2155L65.2584 9.35593L43.6743 31.2155Z"
            fill="OKLCH(0.606 0.25 292.717)" />
        <path
            d="M43.6209 31.2107C40.7864 34.0814 37.4214 36.3585 33.718 37.912C30.0146 39.4656 26.0454 40.2652 22.0368 40.2652C18.0282 40.2652 14.059 39.4656 10.3555 37.912C6.65217 36.3585 3.28711 34.0814 0.452637 31.2107L22.0368 9.35114L43.6209 31.2107Z"
            fill="OKLCH(0.606 0.25 292.717)" />
        <path
            d="M65.2847 9.3293C68.1188 6.45865 71.4842 4.18156 75.1875 2.62798C78.8907 1.07441 82.8605 0.274811 86.8686 0.274811C90.8777 0.274811 94.8465 1.07441 98.5498 2.62798C102.253 4.18156 105.618 6.45865 108.453 9.3293L86.8686 31.1889L65.2847 9.3293Z"
            fill="OKLCH(0.541 0.281 293.009)" />
    </g>
    <g id="logotype" transform="translate(115, 9)">
        <path fill="#111111"
            d="M26.86 25L8.03 25Q8.03 21.81 8.89 19.47Q9.75 17.13 11.69 15.27Q13.63 13.41 16.85 11.73L16.85 11.73Q18.57 10.86 19.56 10.18Q20.56 9.49 20.98 8.79Q21.40 8.09 21.40 7.15L21.40 7.15Q21.40 6.24 21.00 5.56Q20.59 4.87 19.83 4.47Q19.05 4.07 17.90 4.07L17.90 4.07Q16.01 4.07 14.91 5.17Q13.80 6.27 13.53 8.38L13.53 8.38L8.07 8.06Q8.41 4.10 10.95 1.85Q13.49-0.41 17.83-0.41L17.83-0.41Q20.70-0.41 22.71 0.53Q24.73 1.48 25.79 3.16Q26.86 4.84 26.86 7.08L26.86 7.08Q26.86 9.04 26.21 10.37Q25.57 11.70 24.13 12.82Q22.70 13.94 20.35 15.20L20.35 15.20Q17.34 16.81 15.91 18.16Q14.47 19.50 14.37 20.52L14.37 20.52L26.86 20.52L26.86 25ZM48.67 25L29.84 25Q29.84 21.81 30.69 19.47Q31.55 17.13 33.49 15.27Q35.44 13.41 38.66 11.73L38.66 11.73Q40.37 10.86 41.37 10.18Q42.37 9.49 42.79 8.79Q43.20 8.09 43.20 7.15L43.20 7.15Q43.20 6.24 42.80 5.56Q42.40 4.87 41.63 4.47Q40.86 4.07 39.70 4.07L39.70 4.07Q37.81 4.07 36.71 5.17Q35.61 6.27 35.33 8.38L35.33 8.38L29.87 8.06Q30.22 4.10 32.76 1.85Q35.30-0.41 39.64-0.41L39.64-0.41Q42.51-0.41 44.52 0.53Q46.53 1.48 47.60 3.16Q48.67 4.84 48.67 7.08L48.67 7.08Q48.67 9.04 48.02 10.37Q47.37 11.70 45.94 12.82Q44.50 13.94 42.16 15.20L42.16 15.20Q39.15 16.81 37.71 18.16Q36.27 19.50 36.17 20.52L36.17 20.52L48.67 20.52L48.67 25ZM55.77 25L50.27 25L59.23 0.15L65.53 0.15L74.50 25L68.97 25L67.14 19.71L57.59 19.71L55.77 25ZM62.38 5.75L59.09 15.34L65.67 15.34L62.38 5.75ZM81.11 25L75.79 25L75.79 0.15L81.11 0.15L81.11 25Z" />
    </g>

</svg>